<svg xmlns="http://www.w3.org/2000/svg" version="1.1" xmlns:xlink="http://www.w3.org/1999/xlink" xmlns:svgjs="http://svgjs.dev/svgjs" width="1500" height="1500" viewBox="0 0 1500 1500"><rect width="1500" height="1500" fill="#ffffff"></rect><g transform="matrix(0.6666666666666666,0,0,0.6666666666666666,249.39393939393938,647.721885116939)"><svg viewBox="0 0 396 81" data-background-color="#ffffff" preserveAspectRatio="xMidYMid meet" height="306" width="1500" xmlns="http://www.w3.org/2000/svg" xmlns:xlink="http://www.w3.org/1999/xlink"><g id="tight-bounds" transform="matrix(1,0,0,1,0.2400000000000091,0.11042796827422308)"><svg viewBox="0 0 395.52 80.77914406345158" height="80.77914406345158" width="395.52"><g><svg viewBox="0 0 506.7760549802918 103.50155732494098" height="80.77914406345158" width="395.52"><g transform="matrix(1,0,0,1,111.25605498029189,14.304484405979544)"><svg viewBox="0 0 395.5199999999999 74.89258851298189" height="74.89258851298189" width="395.5199999999999"><g id="textblocktransform"><svg viewBox="0 0 395.5199999999999 74.89258851298189" height="74.89258851298189" width="395.5199999999999" id="textblock"><g><svg viewBox="0 0 395.5199999999999 74.89258851298189" height="74.89258851298189" width="395.5199999999999"><g transform="matrix(1,0,0,1,0,0)"><svg width="395.5199999999999" viewBox="0.6 -35.5 190.63 36.1" height="74.89258851298189" data-palette-color="#7a26c1"><path d="M22.85 0L18.85-12.25 7.45-12.25 3.55 0 0.6 0 11.8-35 14.45-35 25.85 0 22.85 0ZM13.1-30.65L8.25-15 18.1-15 13.1-30.65ZM42.85-0.3Q39.75 0.5 36.85 0.5L36.85 0.5Q34.15 0.5 32.35-0.1L32.35-0.1Q29.4-1.1 28.07-3.18 26.75-5.25 26.75-9L26.75-9 26.75-15.4Q26.75-20.35 29.35-22.93 31.95-25.5 36.05-25.5L36.05-25.5Q39.3-25.5 42.75-23.9L42.75-23.9 41.95-21.85Q39.1-23 36.45-23L36.45-23Q33.35-23 31.45-21.23 29.55-19.45 29.55-15.7L29.55-15.7 29.55-8.45Q29.55-5 31.62-3.45 33.7-1.9 37.15-1.9L37.15-1.9Q39.4-1.9 42.25-2.55L42.25-2.55 42.85-0.3ZM62-0.3Q58.9 0.5 56 0.5L56 0.5Q53.3 0.5 51.5-0.1L51.5-0.1Q48.55-1.1 47.22-3.18 45.9-5.25 45.9-9L45.9-9 45.9-15.4Q45.9-20.35 48.5-22.93 51.1-25.5 55.2-25.5L55.2-25.5Q58.45-25.5 61.9-23.9L61.9-23.9 61.1-21.85Q58.25-23 55.6-23L55.6-23Q52.5-23 50.6-21.23 48.7-19.45 48.7-15.7L48.7-15.7 48.7-8.45Q48.7-5 50.77-3.45 52.85-1.9 56.3-1.9L56.3-1.9Q58.55-1.9 61.4-2.55L61.4-2.55 62-0.3ZM81.74-1.75Q79.94-0.6 77.64 0 75.34 0.6 73.04 0.6L73.04 0.6Q69.34 0.6 67.17-1.23 64.99-3.05 64.99-6.7L64.99-6.7 64.99-16.95Q64.99-21 67.52-23.25 70.04-25.5 74.19-25.5L74.19-25.5Q78.34-25.5 80.67-23.28 82.99-21.05 82.99-17.1L82.99-17.1 82.99-10.6 67.79-9.75 67.79-6.7Q67.79-4.3 69.34-3.1 70.89-1.9 73.39-1.9L73.39-1.9Q76.89-1.9 80.64-3.9L80.64-3.9 81.74-1.75ZM80.19-17.45Q80.19-20.55 78.24-21.83 76.29-23.1 74.14-23.1L74.14-23.1Q71.39-23.1 69.59-21.6 67.79-20.1 67.79-16.9L67.79-16.9 67.79-12.5 80.19-13.1 80.19-17.45ZM88.84 0L88.84-35 91.64-35 91.64 0 88.84 0ZM118.19-9.2Q118.19-5 115.89-2.25 113.59 0.5 108.94 0.5L108.94 0.5Q104.29 0.5 101.91-2.27 99.54-5.05 99.54-9.2L99.54-9.2 99.54-15.8Q99.54-20.55 101.96-23.08 104.39-25.6 108.94-25.6L108.94-25.6Q113.29-25.6 115.74-22.98 118.19-20.35 118.19-15.8L118.19-15.8 118.19-9.2ZM115.39-15.8Q115.39-19.55 113.66-21.3 111.94-23.05 108.94-23.05L108.94-23.05Q105.84-23.05 104.09-21.3 102.34-19.55 102.34-15.8L102.34-15.8 102.34-8.7Q102.34-5.7 104.11-3.85 105.89-2 108.94-2L108.94-2Q112.04-2 113.71-3.83 115.39-5.65 115.39-8.7L115.39-8.7 115.39-15.8ZM137.74-0.3Q134.64 0.5 131.74 0.5L131.74 0.5Q129.04 0.5 127.24-0.1L127.24-0.1Q124.29-1.1 122.96-3.18 121.64-5.25 121.64-9L121.64-9 121.64-15.4Q121.64-20.35 124.24-22.93 126.84-25.5 130.94-25.5L130.94-25.5Q134.19-25.5 137.64-23.9L137.64-23.9 136.84-21.85Q133.99-23 131.34-23L131.34-23Q128.24-23 126.34-21.23 124.44-19.45 124.44-15.7L124.44-15.7 124.44-8.45Q124.44-5 126.51-3.45 128.59-1.9 132.04-1.9L132.04-1.9Q134.29-1.9 137.14-2.55L137.14-2.55 137.74-0.3ZM155.53 0L145.93-15.85 143.33-13.6 143.33 0 140.53 0 140.53-35 143.33-35 143.33-16.75 153.33-26 155.33-24.05 147.93-17.6Q151.33-11.95 158.88 0L158.88 0 155.53 0ZM164.48-32.15Q163.83-32.15 163.31-32.68 162.78-33.2 162.78-33.85L162.78-33.85Q162.78-34.5 163.28-35 163.78-35.5 164.48-35.5L164.48-35.5Q165.18-35.5 165.66-35.02 166.13-34.55 166.13-33.85L166.13-33.85Q166.13-33.15 165.63-32.65 165.13-32.15 164.48-32.15L164.48-32.15ZM163.03 0L163.03-25.05 165.83-25.05 165.83 0 163.03 0ZM191.23 0Q185.83 0.55 183.43 0.55L183.43 0.55Q178.18 0.55 175.08-1.4 171.98-3.35 171.98-8.45L171.98-8.45 171.98-12.6Q171.98-17.55 175.43-19.25L175.43-19.25Q177.08-20.1 179.63-20.1L179.63-20.1Q181.98-20.1 184.38-19.33 186.78-18.55 188.43-17.3L188.43-17.3Q188.43-20.05 186.83-21.68 185.23-23.3 180.68-23.3L180.68-23.3 180.83-25.45Q185.63-25.45 187.9-23.93 190.18-22.4 190.7-20.3 191.23-18.2 191.23-14.9L191.23-14.9 191.23 0ZM188.43-15.15Q186.38-16.1 184.05-16.8 181.73-17.5 179.78-17.5L179.78-17.5Q174.73-17.5 174.73-12.45L174.73-12.45 174.73-8.1Q174.73-4.85 176.98-3.38 179.23-1.9 183.38-1.9L183.38-1.9Q185.53-1.9 188.43-2.3L188.43-2.3 188.43-15.15Z" opacity="1" transform="matrix(1,0,0,1,0,0)" fill="#000000" class="wordmark-text-0" data-fill-palette-color="primary" id="text-0"></path></svg></g></svg></g></svg></g></svg></g><g><svg viewBox="0 0 93.57571225450118 103.50155732494098" height="103.50155732494098" width="93.57571225450118"><g><svg xmlns="http://www.w3.org/2000/svg" xmlns:xlink="http://www.w3.org/1999/xlink" version="1.1" x="0" y="0" viewBox="249.659 107.596 524.743 580.404" enable-background="new 0 0 1024 768" xml:space="preserve" height="103.50155732494098" width="93.57571225450118" class="icon-icon-0" data-fill-palette-color="accent" id="icon-0"><g fill="#6936f5" data-fill-palette-color="accent"><path d="M666 365.5V260.393C665 176.097 596.877 107.596 512.196 107.596 427.163 107.596 358 176.502 358 261.103V366.762L249.659 448H285.703L511.192 287.058 736.989 446.85 774.402 446.739zM415 323.612V261.69C415 208.467 458.479 165.168 511.5 165.168S608 208.467 608 261.69V323.066L511.336 251.655z" fill="#000000" data-fill-palette-color="accent"></path><path d="M322.94 450.84L322 450.317V688H700V450.84L511.367 314.583zM562.211 466.759C562.211 485.625 551.744 502.651 536.302 511.143L554.675 609H469.369L487.789 510.877C472.607 502.311 462.347 485.786 462.347 467.112 462.347 439.535 484.702 417.003 512.278 417.003S562.211 439.182 562.211 466.759" fill="#000000" data-fill-palette-color="accent"></path></g></svg></g></svg></g></svg></g><defs></defs></svg><rect width="395.52" height="80.77914406345158" fill="none" stroke="none" visibility="hidden"></rect></g></svg></g></svg>